<?xml version="1.0" encoding="utf-8"?>
<!-- Generator: Adobe Illustrator 19.2.1, SVG Export Plug-In . SVG Version: 6.00 Build 0)  -->
<svg version="1.1" id="Layer_1" xmlns="http://www.w3.org/2000/svg" xmlns:xlink="http://www.w3.org/1999/xlink" x="0px" y="0px"
	 viewBox="0 0 841.9 595.3" style="enable-background:new 0 0 841.9 595.3;" xml:space="preserve">
<style type="text/css">
	.st0{clip-path:url(#SVGID_2_);}
	.st1{fill:#253642;}
	.st2{fill:url(#SVGID_3_);}
	.st3{fill:#9CCFEF;}
	.st4{fill:#86B8E2;}
	.st5{fill:#6AA9E4;}
	.st6{fill:#4D8AC1;}
	.st7{fill:#E1FFFD;}
	.st8{fill:#323232;}
</style>
<g>
	<defs>
		<circle id="SVGID_1_" cx="412.3" cy="292.7" r="222"/>
	</defs>
	<clipPath id="SVGID_2_">
		<use xlink:href="#SVGID_1_"  style="overflow:visible;"/>
	</clipPath>
	<g class="st0">
		<circle class="st1" cx="420.9" cy="297.6" r="226.9"/>
		<linearGradient id="SVGID_3_" gradientUnits="userSpaceOnUse" x1="351.1052" y1="212.1729" x2="660.6296" y2="390.8769">
			<stop  offset="0" style="stop-color:#000000"/>
			<stop  offset="0.386" style="stop-color:#10181E"/>
			<stop  offset="0.7297" style="stop-color:#1B2732"/>
			<stop  offset="0.9636" style="stop-color:#1F2D39"/>
		</linearGradient>
		<polygon class="st2" points="424.3,85.3 462.5,96.1 726.6,276.6 594,434.8 424.2,434.8 		"/>
		<g>
			<path class="st3" d="M415.7,524.6c-38.4-0.1-78.2-11.3-111.1-22c-19.6-6.6-42.8-29.6-64.3-29.7c-4.3,0-4.3,0-4.4-4.4
				c-0.1-11.7,2.5-23,6-34.1c2.9-9.4,6.1-18.7,12.1-26.6c10.3-13.7,24.7-20.3,41.1-23.2c9.4-1.6,19-2.2,28.5-2.2
				c15.2,0.1,26.7-6.5,35.8-18.1c8.7-11.1,14.1-23.9,18.5-37.2c0.5-1.5,0.1-2.6-0.9-3.7c-3.5-3.9-6.7-8-10.2-11.8
				c-12.6-13.6-18.5-30.3-22.2-48c-5.3-25.7-8.8-51.7-7.9-78c0.8-23,5.6-45,18.4-64.6C370.4,97.6,392,85.5,420,85.3
				c0,84.4,0,168.7,0,253.1c-1.6,0-3.2,0-4.8,0.1c-11.2,0.3-22.4,0.5-31.4-7.9c-0.2-0.2-0.5-0.4-0.7-0.6c-0.1,0-0.2,0-0.4,0
				c0.1,0.1,0.1,0.1,0.2,0.2c0.2,0.2,0.4,0.5,0.5,0.7c3.6,5.4,8.1,10.1,12.5,14.8c6.8,7.4,15.2,11.6,25.3,12.6
				c-0.1,10.1,0,20.2-0.4,30.3c-0.7,16,0,32.1-0.7,48.2C419.6,449.1,415.7,512.3,415.7,524.6z"/>
			<path class="st4" d="M543.9,488.4c-44.8,33-94.9,36-128.2,36.2c-1.4,0,0.7-34.4,2.4-51.2c0-12.2,1.5-24.2,2-36.5
				c0.7-16.1,0-32.1,0.7-48.2c0.4-10.1,0.3-20.2,0.4-30.3c8.9,1.3,17.8,0.3,26.5-0.3c9.6-0.7,18.6-4,24.5-12.6
				c1.5,2.8,2.9,5.6,4.5,8.4c4.7,8,10,15.4,17.7,20.7c3.6,2.9,7.7,4.8,12.1,6.1c8.7,2.5,17.7,1.7,26.5,2.4c12,0.9,23.7,2.3,34.6,7.5
				"/>
			<path class="st5" d="M555.7,460.3"/>
			<path class="st4" d="M420,338.4c0-84.4,0-168.7,0-253.1c19.3-0.2,36.4,5.8,51,18.7c0.7,0.6,1.5,1.2,2.2,1.8
				c4.5,4.8,8.9,9.7,12.4,15.3c13.1,20.6,17.6,43.5,18.3,67.4c0.3,10.6-0.8,21.1-1.7,31.7c-1.5,17.5-3.9,34.9-8.4,51.8
				c-3.1,11.9-7.2,23.4-15.1,33.1c-4.3,5.4-8.8,10.6-13.2,16c-0.7,0.8-1.6,1.4-1.6,2.6c-1.4,0.3-2,1.4-2.9,2.4
				c-6.5,7-13.8,12.3-23.9,12.4C431.5,338.5,425.7,338.4,420,338.4z"/>
			<path class="st6" d="M464,323.7c2.8,7.2,5.5,14.5,8.3,21.7c-5.9,8.6-14.9,11.9-24.5,12.6c-8.8,0.6-17.7,1.6-26.5,0.3
				c-10-0.9-18.5-5.2-25.3-12.6c-4.4-4.8-8.8-9.5-12.5-14.8c0.1-0.1,0.2-0.2,0.3-0.3c9,8.4,20.2,8.2,31.4,7.9c1.6,0,3.2,0,4.8-0.1
				c5.7,0,11.5,0,17.2,0c10.1,0,17.4-5.4,23.9-12.4C461.9,325.2,462.6,324,464,323.7z"/>
			<path class="st6" d="M382.9,330.3c-0.1-0.1-0.1-0.1-0.2-0.2c0.1,0,0.2,0,0.4,0L382.9,330.3z"/>
			<path class="st6" d="M383.1,330.1c0.2,0.2,0.5,0.4,0.7,0.6c-0.1,0.1-0.2,0.2-0.3,0.3c-0.2-0.2-0.4-0.5-0.6-0.7
				C382.9,330.3,383.1,330.1,383.1,330.1z"/>
		</g>
	</g>
	<g class="st0">
	</g>
</g>
<circle class="st7" cx="523.8" cy="407.6" r="79.3"/>
<g id="DuU6ZN.tif">
	<g>
		<path class="st8" d="M528.1,348.7c2.3,0.3,4.6,0.6,7,1c6,1,11.6,2.9,16.8,6.1c3.3,2,6.1,4.5,8.4,7.6c3.8,5,5.5,10.6,5.8,16.8
			c0.3,5.5-1,10.7-3.8,15.4c-1.8,3-4.2,5.7-6.7,8.1c-4.4,4.1-9.3,7.4-14.2,10.9c-3.9,2.8-6.4,6.3-8,10.8c-0.6,1.8-1.6,3.5-2.7,5
			c-1.4,1.9-3.6,2.5-5.9,2.8c-2.6,0.3-5.2,0.2-7.6-1.3c-3.7-2.3-5.1-5.9-5.1-10.1c0.1-5.1,2.2-9.3,5.5-13c3.8-4.3,8.4-7.5,12.9-11.1
			c3.3-2.6,6.4-5.4,8.7-9c3.3-5.3,2.3-14.1-3.2-18c-2-1.4-4.2-2.3-6.6-2.7c-3.7-0.6-7.4-0.5-10.9,0.6c-4.1,1.3-6.7,4.2-8.6,7.9
			c-1.1,2.1-2,4.2-3.1,6.2c-1,1.9-2.2,3.7-4.1,4.9c-2.8,1.9-5.9,2.1-9.1,1.5c-2-0.4-3.7-1.2-5.2-2.6c-2.2-2-2.9-4.6-2.9-7.5
			c0.1-4.8,1.6-9.2,4.3-13.2c4.6-6.7,10.9-11.1,18.4-14.1c4-1.6,8.2-2.5,12.5-2.9c0.2,0,0.4-0.1,0.6-0.1
			C523.6,348.7,525.9,348.7,528.1,348.7z"/>
		<path class="st8" d="M521.5,471.2c-1.8-0.7-3.7-1.2-5.3-2.1c-5.9-3.4-8.1-11.4-5-17.5c3.3-6.5,11.2-9.3,17.8-6.2
			c8.5,3.9,10.5,15.5,3.8,21.9c-2,2-4.4,3.2-7.2,3.7c-0.2,0-0.4,0.1-0.6,0.2C523.8,471.2,522.7,471.2,521.5,471.2z"/>
	</g>
</g>
</svg>
